<?xml version="1.0" encoding="UTF-8" standalone="no"?>
<!-- Created with Inkscape (http://www.inkscape.org/) -->
<svg
   xmlns:dc="http://purl.org/dc/elements/1.1/"
   xmlns:cc="http://web.resource.org/cc/"
   xmlns:rdf="http://www.w3.org/1999/02/22-rdf-syntax-ns#"
   xmlns:svg="http://www.w3.org/2000/svg"
   xmlns="http://www.w3.org/2000/svg"
   xmlns:sodipodi="http://inkscape.sourceforge.net/DTD/sodipodi-0.dtd"
   xmlns:inkscape="http://www.inkscape.org/namespaces/inkscape"
   width="600.00000pt"
   height="550.00000pt"
   id="svg2"
   sodipodi:version="0.32"
   inkscape:version="0.42"
   sodipodi:docbase="/home/hongli"
   sodipodi:docname="flow.svg"
   inkscape:export-filename="/home/hongli/flow.png"
   inkscape:export-xdpi="75.000000"
   inkscape:export-ydpi="75.000000">
  <defs
     id="defs4">
    <marker
       inkscape:stockid="Arrow1Sstart"
       orient="auto"
       refY="0.0"
       refX="0.0"
       id="Arrow1Sstart"
       style="overflow:visible">
      <path
         sodipodi:nodetypes="ccccc"
         id="path983"
         d="M 0.0,0.0 L 5.0,-5.0 L -12.5,0.0 L 5.0,5.0 L 0.0,0.0 z "
         style="fill-rule:evenodd;stroke:#000000;stroke-width:1.0pt;marker-start:none"
         transform="scale(0.2)" />
    </marker>
    <marker
       inkscape:stockid="Arrow1Mstart"
       orient="auto"
       refY="0.0"
       refX="0.0"
       id="Arrow1Mstart"
       style="overflow:visible">
      <path
         sodipodi:nodetypes="ccccc"
         id="path2321"
         d="M 0.0,0.0 L 5.0,-5.0 L -12.5,0.0 L 5.0,5.0 L 0.0,0.0 z "
         style="fill-rule:evenodd;stroke:#000000;stroke-width:1.0pt;marker-start:none"
         transform="scale(0.4)" />
    </marker>
    <marker
       inkscape:stockid="Arrow2Mend"
       orient="auto"
       refY="0.0"
       refX="0.0"
       id="Arrow2Mend"
       style="overflow:visible;">
      <path
         sodipodi:nodetypes="cccc"
         id="path2313"
         style="font-size:12.0;fill-rule:evenodd;stroke-width:0.62500000;stroke-linejoin:round;"
         d="M 8.7185878,4.0337352 L -2.2072895,0.016013256 L 8.7185884,-4.0017078 C 6.9730900,-1.6296469 6.9831476,1.6157441 8.7185878,4.0337352 z "
         transform="scale(0.6) rotate(180) translate(-5,0)" />
    </marker>
    <marker
       inkscape:stockid="Arrow2Mstart"
       orient="auto"
       refY="0.0"
       refX="0.0"
       id="Arrow2Mstart"
       style="overflow:visible">
      <path
         sodipodi:nodetypes="cccc"
         id="path2304"
         style="font-size:12.0;fill-rule:evenodd;stroke-width:0.62500000;stroke-linejoin:round"
         d="M 8.7185878,4.0337352 L -2.2072895,0.016013256 L 8.7185884,-4.0017078 C 6.9730900,-1.6296469 6.9831476,1.6157441 8.7185878,4.0337352 z "
         transform="scale(0.6) translate(-5,0)" />
    </marker>
    <marker
       inkscape:stockid="Arrow2Lend"
       orient="auto"
       refY="0.0"
       refX="0.0"
       id="Arrow2Lend"
       style="overflow:visible;">
      <path
         sodipodi:nodetypes="cccc"
         id="path2316"
         style="font-size:12.0;fill-rule:evenodd;stroke-width:0.62500000;stroke-linejoin:round;"
         d="M 8.7185878,4.0337352 L -2.2072895,0.016013256 L 8.7185884,-4.0017078 C 6.9730900,-1.6296469 6.9831476,1.6157441 8.7185878,4.0337352 z "
         transform="scale(1.1) rotate(180) translate(-5,0)" />
    </marker>
    <marker
       inkscape:stockid="Arrow2Lstart"
       orient="auto"
       refY="0.0"
       refX="0.0"
       id="Arrow2Lstart"
       style="overflow:visible">
      <path
         sodipodi:nodetypes="cccc"
         id="path2307"
         style="font-size:12.0;fill-rule:evenodd;stroke-width:0.62500000;stroke-linejoin:round"
         d="M 8.7185878,4.0337352 L -2.2072895,0.016013256 L 8.7185884,-4.0017078 C 6.9730900,-1.6296469 6.9831476,1.6157441 8.7185878,4.0337352 z "
         transform="scale(1.1) translate(-5,0)" />
    </marker>
  </defs>
  <sodipodi:namedview
     id="base"
     pagecolor="#ffffff"
     bordercolor="#666666"
     borderopacity="1.0"
     inkscape:pageopacity="1.0000000"
     inkscape:pageshadow="2"
     inkscape:zoom="0.98994949"
     inkscape:cx="295.46080"
     inkscape:cy="339.60059"
     inkscape:document-units="px"
     inkscape:current-layer="layer1"
     fill="#000000"
     showguides="true"
     inkscape:guide-bbox="true"
     inkscape:window-width="1280"
     inkscape:window-height="926"
     inkscape:window-x="0"
     inkscape:window-y="48" />
  <metadata
     id="metadata7">
    <rdf:RDF>
      <cc:Work
         rdf:about="">
        <dc:format>image/svg+xml</dc:format>
        <dc:type
           rdf:resource="http://purl.org/dc/dcmitype/StillImage" />
      </cc:Work>
    </rdf:RDF>
  </metadata>
  <g
     inkscape:label="Layer 1"
     inkscape:groupmode="layer"
     id="layer1">
    <path
       style="fill:none;fill-opacity:0.75000000;fill-rule:evenodd;stroke:#000000;stroke-width:2.0000000;stroke-linecap:butt;stroke-linejoin:miter;marker-start:url(#Arrow2Mstart);marker-end:url(#Arrow2Mend);stroke-miterlimit:4.0000000;stroke-dasharray:none;stroke-opacity:1.0000000"
       d="M 269.81437,299.27430 L 269.81437,224.68712"
       id="path1318" />
    <path
       style="fill:none;fill-opacity:0.75000000;fill-rule:evenodd;stroke:#000000;stroke-width:2.4062791;stroke-linecap:butt;stroke-linejoin:miter;marker-start:url(#Arrow1Mstart);marker-end:url(#Arrow2Mend);stroke-miterlimit:4.0000000;stroke-dasharray:none;stroke-opacity:1.0000000"
       d="M 148.97062,517.65288 L 218.67988,398.83648"
       id="path1322" />
    <g
       id="g2346"
       transform="translate(43.43656,34.34518)">
      <path
         d="M 111.11662,63.067117 C 108.68010,36.438697 125.27447,36.347587 161.10613,23.493167 C 183.25997,20.564657 206.39568,21.525357 228.25079,19.398537 C 149.48666,36.385717 273.54296,11.863787 300.28135,10.330257 C 332.51334,7.9623072 359.25229,11.191787 368.42906,34.849357 C 367.03310,53.772217 375.38271,60.486407 398.71876,67.111717 C 420.73128,74.526657 431.55196,83.685387 433.53035,100.68556 C 435.35541,126.84446 397.17445,136.43170 366.02233,142.47714 C 337.72806,145.83013 308.73725,143.64583 280.76599,147.02229 C 332.80670,117.44154 291.38316,154.20743 279.45935,166.69191 C 247.25540,184.71100 221.79503,184.96360 184.30910,185.02445 C 157.18357,187.06112 137.06938,178.31052 118.04335,165.51691 C 106.40484,152.26950 89.782756,145.62682 70.779487,139.21457 C 51.256480,133.79757 38.864945,124.49171 27.990342,112.27250 C 4.8939605,85.051957 21.706609,81.668077 61.645172,67.072787 C 90.536847,71.303017 151.53856,52.551897 94.409631,75.294227 C 98.787829,72.999577 97.682881,68.777067 99.240197,65.676407 L 132.32273,53.985517 C 131.48136,57.797477 131.98958,61.835987 128.77570,65.217607 C 92.354811,81.252887 72.812234,83.176987 32.133687,83.073577 C 70.675278,65.741697 38.625968,75.069747 60.141390,99.185927 C 70.858188,110.89217 82.746296,119.68026 101.80839,124.71674 C 121.04756,131.19196 137.59731,138.71832 149.45366,151.85807 C 168.28842,164.44394 187.54588,171.60879 214.07985,169.63660 C 237.55235,169.63140 308.02409,158.19564 244.91883,176.54200 C 266.32732,157.74513 271.59832,139.81314 310.09355,130.86935 C 338.10708,127.99881 367.08001,131.53617 394.93570,126.70922 C 433.19403,117.25558 378.95421,148.20764 400.71360,112.70151 C 398.99805,96.744887 389.35235,88.236767 368.02117,81.832957 C 344.13832,74.999247 334.25796,66.257877 335.83492,47.141347 C 327.74025,24.420317 300.78033,23.410797 270.98184,25.713037 C 140.79233,33.049307 303.27176,6.2637972 198.92898,35.682387 C 176.62428,36.628347 153.61523,35.690907 131.74186,39.666637 C 147.96016,31.697547 147.02203,23.179237 144.87514,50.827157 L 111.11662,63.067117 z "
         id="path1306"
         style="fill:#000000;fill-opacity:1.0000000;fill-rule:nonzero;stroke:none;stroke-width:1.0000000px;stroke-linecap:butt;stroke-linejoin:miter;stroke-opacity:1.0000000" />
      <text
         sodipodi:linespacing="125.00000%"
         id="text1467"
         y="115.95077"
         x="102.02541"
         style="font-size:48.000000px;font-style:normal;font-variant:normal;font-weight:bold;font-stretch:normal;text-align:start;line-height:125.00000%;writing-mode:lr-tb;text-anchor:start;fill:#000000;fill-opacity:1.0000000;stroke:none;stroke-width:1.0000000px;stroke-linecap:butt;stroke-linejoin:miter;stroke-opacity:1.0000000;font-family:Arial"
         xml:space="preserve"><tspan
           y="115.95077"
           x="102.02541"
           id="tspan1471"
           sodipodi:role="line">RO Server</tspan></text>
    </g>
    <g
       id="g2359"
       transform="translate(35.35534,82.83251)">
      <path
         transform="matrix(0.993572,0.000000,0.000000,0.939391,-13.92174,-126.7032)"
         d="M 191.42857 659.50507 A 78.571426 50.000000 0 1 1  34.285713,659.50507 A 78.571426 50.000000 0 1 1  191.42857 659.50507 z"
         sodipodi:ry="50.000000"
         sodipodi:rx="78.571426"
         sodipodi:cy="659.50507"
         sodipodi:cx="112.85714"
         id="path1312"
         style="fill:#ff0000"
         sodipodi:type="arc" />
      <text
         sodipodi:linespacing="125.00000%"
         id="text2351"
         y="487.68689"
         x="96.974648"
         style="font-size:24.000000px;font-style:normal;font-variant:normal;font-weight:normal;font-stretch:normal;text-align:center;line-height:125.00000%;writing-mode:lr-tb;text-anchor:middle;fill:#ffffff;fill-opacity:1.0000000;stroke:none;stroke-width:1.0000000px;stroke-linecap:butt;stroke-linejoin:miter;stroke-opacity:1.0000000;font-family:Arial"
         xml:space="preserve"><tspan
           y="487.68689"
           x="96.974648"
           id="tspan2353"
           sodipodi:role="line">Controller</tspan><tspan
           id="tspan2355"
           y="517.68689"
           x="96.974648"
           sodipodi:role="line">Client</tspan></text>
    </g>
    <g
       id="g2373"
       transform="translate(43.43656,34.34518)">
      <rect
         transform="matrix(0.779686,0.626171,-0.852039,0.523479,0.000000,0.000000)"
         y="76.046463"
         x="369.32837"
         height="98.638840"
         width="95.302551"
         id="rect1308"
         style="fill:#ffff00" />
      <text
         sodipodi:linespacing="125.00000%"
         id="text2365"
         y="333.13358"
         x="185.86806"
         style="font-size:24.000000px;font-style:normal;font-variant:normal;font-weight:normal;font-stretch:normal;text-align:start;line-height:125.00000%;writing-mode:lr-tb;text-anchor:start;fill:#000000;fill-opacity:1.0000000;stroke:none;stroke-width:1.0000000px;stroke-linecap:butt;stroke-linejoin:miter;stroke-opacity:1.0000000;font-family:Arial"
         xml:space="preserve"><tspan
           y="333.13358"
           x="185.86806"
           id="tspan2367"
           sodipodi:role="line">Proxy</tspan></text>
    </g>
    <g
       id="g2378"
       transform="translate(51.51778,28.28427)">
      <rect
         y="319.16562"
         x="434.51849"
         height="77.142860"
         width="221.73315"
         id="rect1324"
         style="fill:#7fff00" />
      <text
         sodipodi:linespacing="125.00000%"
         id="text2369"
         y="363.43817"
         x="456.58896"
         style="font-size:24.000000px;font-style:normal;font-variant:normal;font-weight:normal;font-stretch:normal;text-align:start;line-height:125.00000%;writing-mode:lr-tb;text-anchor:start;fill:#000000;fill-opacity:1.0000000;stroke:none;stroke-width:1.0000000px;stroke-linecap:butt;stroke-linejoin:miter;stroke-opacity:1.0000000;font-family:Arial"
         xml:space="preserve"><tspan
           y="363.43817"
           x="456.58896"
           id="tspan2371"
           sodipodi:role="line">Login interceptor</tspan></text>
    </g>
    <path
       style="fill:none;fill-opacity:0.75000000;fill-rule:evenodd;stroke:#000000;stroke-width:2.5000000;stroke-linecap:butt;stroke-linejoin:miter;marker-end:url(#Arrow2Mend);stroke-miterlimit:4.0000000;stroke-dasharray:none;stroke-opacity:1.0000000"
       d="M 331.54262,355.56950 L 474.55910,355.56950"
       id="path2385" />
    <path
       style="fill:none;fill-opacity:0.75000000;fill-rule:evenodd;stroke:#000000;stroke-width:2.5000000;stroke-linecap:butt;stroke-linejoin:miter;marker-end:url(#Arrow2Mend);stroke-miterlimit:4.0000000;stroke-dasharray:none;stroke-opacity:1.0000000"
       d="M 485.86871,416.25614 L 314.17210,416.25614 L 314.17210,391.43234"
       id="path2387" />
    <g
       id="g2417">
      <path
         d="M 337.04968,545.35746 C 334.29609,514.42423 372.64070,502.85947 398.37005,514.14190 C 465.74301,521.25593 358.14771,551.24926 444.81955,504.86582 C 464.88101,501.65540 485.11405,500.21695 501.51742,512.35736 C 514.08028,526.45588 519.87847,543.31723 524.48675,560.78431 C 535.48893,574.72757 555.19986,574.60166 540.09190,594.15237 C 515.21691,612.59827 487.44406,628.75527 455.90301,631.86456 C 430.65351,632.44399 405.38352,632.27948 380.12643,632.18811 C 351.53882,634.00341 333.76119,633.27797 319.82147,608.13434 C 312.14681,588.82107 319.71381,568.69769 322.00783,548.93614 C 322.55530,545.63692 324.41855,542.76789 325.62205,539.68848 L 358.11688,525.56087 C 356.72617,528.43176 355.46711,531.36052 353.94327,534.17661 C 351.67154,553.28738 344.22387,572.89911 350.58708,591.72913 C 363.78111,615.63182 381.97512,613.65042 408.64988,612.60160 C 433.86573,612.55524 459.10776,613.16233 484.30308,612.05021 C 557.09085,601.25014 467.88119,617.50348 507.17491,606.85628 C 523.42102,589.90599 503.08671,592.58803 493.35834,577.24721 C 488.54949,560.41545 483.85242,543.43402 471.18622,530.00341 C 454.34119,521.14013 435.92685,520.45518 416.84431,525.88770 C 481.31308,489.98243 400.40916,556.22852 368.85091,532.58219 C 332.22642,518.80980 377.20427,503.43023 369.41895,529.76748 L 337.04968,545.35746 z "
         id="path1316"
         style="fill:#000000;fill-opacity:1.0000000;fill-rule:nonzero;stroke:none;stroke-width:1.0000000px;stroke-linecap:butt;stroke-linejoin:miter;stroke-opacity:1.0000000" />
      <text
         sodipodi:linespacing="125.00000%"
         id="text2389"
         y="566.47882"
         x="419.21329"
         style="font-size:24.000000px;font-style:normal;font-variant:normal;font-weight:normal;font-stretch:normal;text-align:center;line-height:125.00000%;writing-mode:lr-tb;text-anchor:middle;fill:#000000;fill-opacity:1.0000000;stroke:none;stroke-width:1.0000000px;stroke-linecap:butt;stroke-linejoin:miter;stroke-opacity:1.0000000;font-family:Arial"
         xml:space="preserve"><tspan
           y="566.47882"
           x="419.21329"
           id="tspan2391"
           sodipodi:role="line">Ghost</tspan><tspan
           id="tspan2393"
           y="596.47882"
           x="419.21329"
           sodipodi:role="line">Client</tspan></text>
    </g>
    <path
       style="fill:none;fill-opacity:0.75000000;fill-rule:evenodd;stroke:#000000;stroke-width:2.5000000;stroke-linecap:butt;stroke-linejoin:miter;marker-start:url(#Arrow1Mstart);marker-end:url(#Arrow2Mend);stroke-miterlimit:4.0000000;stroke-dasharray:none;stroke-opacity:1.0000000"
       d="M 536.39100,435.91135 L 536.39100,478.68329 L 364.66507,478.68329 L 364.66507,502.08680"
       id="path2399" />
    <text
       xml:space="preserve"
       style="font-size:18.000000px;font-style:italic;font-variant:normal;font-weight:normal;font-stretch:normal;text-align:start;line-height:125.00000%;writing-mode:lr-tb;text-anchor:start;fill:#000000;fill-opacity:1.0000000;stroke:none;stroke-width:1.0000000px;stroke-linecap:butt;stroke-linejoin:miter;stroke-opacity:1.0000000;font-family:Arial"
       x="131.31982"
       y="458.39252"
       id="text2401"
       sodipodi:linespacing="125.00000%"><tspan
         sodipodi:role="line"
         id="tspan2403"
         x="131.31982"
         y="458.39252">Data</tspan></text>
    <text
       xml:space="preserve"
       style="font-size:18.000000px;font-style:italic;font-variant:normal;font-weight:normal;font-stretch:normal;text-align:start;line-height:125.00000%;writing-mode:lr-tb;text-anchor:start;fill:#000000;fill-opacity:1.0000000;stroke:none;stroke-width:1.0000000px;stroke-linecap:butt;stroke-linejoin:miter;stroke-opacity:1.0000000;font-family:Arial"
       x="378.85312"
       y="409.17099"
       id="text2405"
       sodipodi:linespacing="125.00000%"><tspan
         sodipodi:role="line"
         id="tspan2407"
         x="378.85312"
         y="409.17099">Data</tspan></text>
    <text
       xml:space="preserve"
       style="font-size:18.000000px;font-style:italic;font-variant:normal;font-weight:normal;font-stretch:normal;text-align:start;line-height:125.00000%;writing-mode:lr-tb;text-anchor:start;fill:#000000;fill-opacity:1.0000000;stroke:none;stroke-width:1.0000000px;stroke-linecap:butt;stroke-linejoin:miter;stroke-opacity:1.0000000;font-family:Arial"
       x="419.25922"
       y="469.78018"
       id="text2409"
       sodipodi:linespacing="125.00000%"><tspan
         sodipodi:role="line"
         id="tspan2411"
         x="419.25922"
         y="469.78018">Data</tspan></text>
    <text
       xml:space="preserve"
       style="font-size:18.000000px;font-style:normal;font-variant:normal;font-weight:normal;font-stretch:normal;text-align:start;line-height:125.00000%;writing-mode:lr-tb;text-anchor:start;fill:#000000;fill-opacity:1.0000000;stroke:none;stroke-width:1.0000000px;stroke-linecap:butt;stroke-linejoin:miter;stroke-opacity:1.0000000;font-family:Arial"
       x="321.22852"
       y="339.19446"
       id="text2413"
       sodipodi:linespacing="125.00000%"><tspan
         sodipodi:role="line"
         id="tspan2415"
         x="321.22852"
         y="339.19446">Record login packets</tspan></text>
  </g>
</svg>
