<?xml version="1.0" encoding="UTF-8" standalone="no"?>
<!-- Created with Inkscape (http://www.inkscape.org/) -->
<svg
   xmlns:dc="http://purl.org/dc/elements/1.1/"
   xmlns:cc="http://web.resource.org/cc/"
   xmlns:rdf="http://www.w3.org/1999/02/22-rdf-syntax-ns#"
   xmlns:svg="http://www.w3.org/2000/svg"
   xmlns="http://www.w3.org/2000/svg"
   xmlns:sodipodi="http://inkscape.sourceforge.net/DTD/sodipodi-0.dtd"
   xmlns:inkscape="http://www.inkscape.org/namespaces/inkscape"
   width="744.09448819"
   height="1052.3622047"
   id="svg2"
   sodipodi:version="0.32"
   inkscape:version="0.42.2"
   sodipodi:docbase="G:\pkserver\Fresh\xkore2\doc"
   sodipodi:docname="PluginFlow.svg">
  <defs
     id="defs4">
    <marker
       inkscape:stockid="Arrow2Lend"
       orient="auto"
       refY="0.0"
       refX="0.0"
       id="Arrow2Lend"
       style="overflow:visible;">
      <path
         sodipodi:nodetypes="cccc"
         id="path2154"
         style="font-size:12.0;fill-rule:evenodd;stroke-width:0.62500000;stroke-linejoin:round;"
         d="M 8.7185878,4.0337352 L -2.2072895,0.016013256 L 8.7185884,-4.0017078 C 6.9730900,-1.6296469 6.9831476,1.6157441 8.7185878,4.0337352 z "
         transform="scale(1.1) rotate(180) translate(-5,0)" />
    </marker>
    <marker
       inkscape:stockid="Arrow2Lstart"
       orient="auto"
       refY="0.0"
       refX="0.0"
       id="Arrow2Lstart"
       style="overflow:visible">
      <path
         sodipodi:nodetypes="cccc"
         id="path2145"
         style="font-size:12.0;fill-rule:evenodd;stroke-width:0.62500000;stroke-linejoin:round"
         d="M 8.7185878,4.0337352 L -2.2072895,0.016013256 L 8.7185884,-4.0017078 C 6.9730900,-1.6296469 6.9831476,1.6157441 8.7185878,4.0337352 z "
         transform="scale(1.1) translate(-5,0)" />
    </marker>
  </defs>
  <sodipodi:namedview
     id="base"
     pagecolor="#ffffff"
     bordercolor="#666666"
     borderopacity="1.0"
     inkscape:pageopacity="0.0"
     inkscape:pageshadow="2"
     inkscape:zoom="1.0000000"
     inkscape:cx="360.83204"
     inkscape:cy="736.71196"
     inkscape:document-units="px"
     inkscape:current-layer="layer1"
     fill="#ff4500"
     inkscape:window-width="1024"
     inkscape:window-height="680"
     inkscape:window-x="-4"
     inkscape:window-y="-4" />
  <metadata
     id="metadata7">
    <rdf:RDF>
      <cc:Work
         rdf:about="">
        <dc:format>image/svg+xml</dc:format>
        <dc:type
           rdf:resource="http://purl.org/dc/dcmitype/StillImage" />
      </cc:Work>
    </rdf:RDF>
  </metadata>
  <g
     inkscape:label="Layer 1"
     inkscape:groupmode="layer"
     id="layer1">
    <path
       sodipodi:type="arc"
       style="fill:#ffff00"
       id="path1308"
       sodipodi:cx="393.57144"
       sodipodi:cy="126.64790"
       sodipodi:rx="227.85715"
       sodipodi:ry="54.285713"
       d="M 621.42859 126.64790 A 227.85715 54.285713 0 1 1  165.71429,126.64790 A 227.85715 54.285713 0 1 1  621.42859 126.64790 z" />
    <path
       style="opacity:1.0000000;color:#000000;fill:#000000;fill-opacity:1.0000000;fill-rule:nonzero;stroke:#000000;stroke-width:0.92065638;stroke-linecap:butt;stroke-linejoin:miter;marker:none;marker-start:url(#Arrow2Lstart);marker-mid:none;marker-end:url(#Arrow2Lend);stroke-miterlimit:4.0000000;stroke-dasharray:none;stroke-dashoffset:0.00000000;stroke-opacity:1.0000000;visibility:visible;display:inline;overflow:visible"
       d="M 382.85714,201.85941 L 381.42857,301.15067"
       id="path1310" />
    <path
       sodipodi:type="star"
       style="fill:#00ff00;stroke:#000000;stroke-width:1.0000000;stroke-miterlimit:4.0000000;stroke-dasharray:none;stroke-dashoffset:0.00000000;stroke-opacity:1.0000000"
       id="path2180"
       sodipodi:sides="4"
       sodipodi:cx="277.04623"
       sodipodi:cy="320.46393"
       sodipodi:r1="126.38892"
       sodipodi:r2="89.370461"
       sodipodi:arg1="-0.065480025"
       sodipodi:arg2="0.71991814"
       inkscape:flatsided="true"
       inkscape:rounded="0.00000000"
       inkscape:randomized="0.00000000"
       d="M 403.16430,312.19389 L 285.31627,446.58199 L 150.92817,328.73397 L 268.77620,194.34586 L 403.16430,312.19389 z "
       transform="matrix(1.016354,0.000000,-4.885983e-2,0.371365,115.6376,241.7713)" />
    <path
       transform="matrix(1.016354,0.000000,-3.257320e-2,0.371365,-69.55624,320.8536)"
       d="M 403.16430,312.19389 L 285.31627,446.58199 L 150.92817,328.73397 L 268.77620,194.34586 L 403.16430,312.19389 z "
       inkscape:randomized="0.00000000"
       inkscape:rounded="0.00000000"
       inkscape:flatsided="true"
       sodipodi:arg2="0.71991814"
       sodipodi:arg1="-0.065480025"
       sodipodi:r2="89.370461"
       sodipodi:r1="126.38892"
       sodipodi:cy="320.46393"
       sodipodi:cx="277.04623"
       sodipodi:sides="4"
       id="path2182"
       style="fill:#ff4500;stroke:#000000;stroke-width:1.0000000;stroke-miterlimit:4.0000000;stroke-dasharray:none;stroke-dashoffset:0.00000000;stroke-opacity:1.0000000"
       sodipodi:type="star" />
    <path
       style="fill:#000000;fill-opacity:1.0000000;fill-rule:nonzero;stroke:none;stroke-width:1.0000000px;stroke-linecap:butt;stroke-linejoin:miter;stroke-opacity:1.0000000"
       id="path4416"
       d="M 310.97949,530.67151 C 313.32017,523.99192 318.11003,518.57997 321.17777,512.24824 C 324.72852,504.05260 333.03240,499.75727 341.36890,497.43022 C 348.67931,496.39928 356.13794,496.70848 363.51282,496.70927 C 371.44346,497.22686 379.04750,499.67723 387.03362,500.18880 C 394.45605,500.49423 401.88977,500.37408 409.31666,500.31172 C 416.66885,500.39185 424.31288,499.30227 430.95033,495.98503 C 438.21109,492.44891 445.94922,490.07797 453.76381,488.13443 C 460.83996,487.01783 468.08900,487.41766 475.23954,487.40968 C 483.72000,487.36148 492.20077,489.56516 498.68671,495.14835 C 503.42097,499.43366 509.29099,503.49252 511.70120,509.62931 C 512.70776,515.46387 516.43584,519.26134 520.97409,522.77901 C 526.18687,527.35939 533.14626,528.61717 539.33147,531.43314 C 545.22167,533.81666 549.57603,538.27193 551.75212,544.20719 C 553.60705,549.14806 553.96693,554.22472 553.19681,559.39473 C 551.79108,567.81111 546.16870,573.30773 537.23832,574.41315 C 531.45758,574.89020 525.65419,574.83251 519.85965,574.79391 C 510.74207,574.70907 501.62147,574.68686 492.50294,574.70867 C 485.03369,574.43803 477.73079,574.88593 470.38091,576.17618 C 464.82412,577.04726 459.82355,579.23001 454.80537,581.59876 C 451.86535,583.26573 448.70155,584.43679 445.42881,585.28822 C 438.93646,586.23836 432.39149,587.11243 425.83195,587.54146 C 420.36983,587.83253 414.89839,587.68963 409.43156,587.71455 C 402.73828,587.37858 396.63613,583.51762 391.51789,579.44707 C 386.96933,574.89837 381.60005,573.53881 375.48351,572.48259 C 369.13791,572.02861 362.96112,570.77889 356.57706,570.64590 C 349.99092,570.58943 343.40421,570.63752 336.81780,570.63997 C 330.68931,570.63317 324.56081,570.64720 318.43231,570.63723 C 313.52203,570.98719 309.27201,570.59415 305.28199,567.66139 C 302.75913,565.24603 300.76091,562.36753 299.32977,559.19013 C 297.83189,556.51064 298.09995,553.32302 298.15938,550.35008 C 298.89141,543.88254 304.16806,542.20674 309.50591,539.17018 C 307.11938,540.02797 318.82365,535.22763 316.63004,536.50019 C 307.81113,541.61625 310.15847,540.43376 312.37092,538.51791 C 313.99928,535.40457 312.25467,534.24613 310.37723,531.93589 C 306.92185,526.68018 313.54616,524.71742 318.11867,522.95348 C 319.62983,522.07233 315.04499,524.62462 313.51293,525.46890 L 320.24438,522.77846 C 317.66272,524.35341 315.18781,526.17409 312.43072,527.44596 C 308.61982,529.03643 316.56117,521.37833 316.57529,528.25739 C 318.67793,530.73347 320.39071,532.15625 319.00994,535.63879 C 315.08363,540.18138 309.07520,541.22377 303.88066,543.67397 C 312.93297,538.39054 305.41298,541.54923 304.62615,547.13636 C 304.49948,549.99529 304.22758,553.05955 305.63044,555.66189 C 306.96822,558.74685 308.88934,561.55723 311.38821,563.82530 C 315.23376,566.64108 319.45504,566.69723 324.13659,566.49283 C 330.26786,566.48294 336.39914,566.49764 342.53040,566.48929 C 349.09096,566.48726 355.65245,566.44803 362.21214,566.57331 C 368.64719,566.76191 374.91593,567.89005 381.31833,568.38664 C 387.51289,569.64011 392.83218,571.04756 397.44251,575.71600 C 402.59042,579.66825 408.47145,583.50659 415.18927,583.53194 C 420.61407,583.56561 426.04384,583.59439 431.46534,583.39590 C 438.03326,583.02495 444.59886,582.02260 451.07406,580.95607 C 454.34391,580.00852 457.45488,578.71549 460.46446,577.12907 C 465.43666,574.75574 470.49465,572.82663 475.98670,571.96021 C 483.31867,570.77049 490.59379,570.25993 498.03226,570.69138 C 507.22687,570.71340 516.42327,570.68526 525.61710,570.61241 C 531.35135,570.59928 537.10803,570.85044 542.81934,570.23393 C 546.30423,569.65249 549.00551,567.55378 540.88958,572.58904 C 538.97971,573.77396 550.00624,563.52323 546.84281,562.51741 C 547.56091,557.47586 547.37823,552.43620 545.54366,547.61286 C 543.42925,541.83272 539.21622,537.62282 533.48765,535.30333 C 527.23874,532.52375 520.24018,531.25672 515.07697,526.49460 C 510.44584,522.88371 506.49916,519.07872 505.40832,513.10176 C 503.02414,507.09137 497.64349,502.87429 492.81405,498.81430 C 486.29603,493.38579 477.95425,491.33216 469.54757,491.54364 C 462.42902,491.50979 455.20463,491.09883 448.17508,492.39280 C 440.40458,494.37913 432.70269,496.71432 425.50689,500.32541 C 418.70615,503.46886 410.98704,504.54212 403.55164,504.50115 C 396.17325,504.45511 388.78885,504.55438 381.41652,504.21111 C 373.42657,503.62182 365.77904,501.18967 357.80925,500.85147 C 350.47226,500.82117 343.02007,500.38640 335.77827,501.71631 C 332.72681,502.63534 325.78395,506.47074 335.31528,500.83294 C 336.50326,500.13025 325.30636,508.89876 327.54766,509.35563 C 324.53740,515.61364 319.57898,520.91466 317.66696,527.64589 L 310.97949,530.67151 z " />
    <path
       style="opacity:1.0000000;color:#000000;fill:#ffff00;fill-opacity:1.0000000;fill-rule:nonzero;stroke:#000000;stroke-width:1.0000000;stroke-linecap:butt;stroke-linejoin:miter;marker:none;marker-start:url(#Arrow2Lstart);marker-mid:none;marker-end:url(#Arrow2Lend);stroke-miterlimit:4.0000000;stroke-dasharray:none;stroke-dashoffset:0.00000000;stroke-opacity:1.0000000;visibility:visible;display:inline;overflow:visible"
       d="M 315.70370,507.57167 L 277.67144,466.22516"
       id="path4420" />
    <path
       sodipodi:type="arc"
       style="fill:#ff4500;stroke:#000000;stroke-width:1.0000000;stroke-miterlimit:4.0000000;stroke-dasharray:none;stroke-dashoffset:0.00000000;stroke-opacity:1.0000000"
       id="path4422"
       sodipodi:cx="297.72131"
       sodipodi:cy="360.78036"
       sodipodi:rx="11.888178"
       sodipodi:ry="4.1350183"
       d="M 309.60949 360.78036 A 11.888178 4.1350183 0 1 1  285.83314,360.78036 A 11.888178 4.1350183 0 1 1  309.60949 360.78036 z"
       transform="translate(22.22572,13.95569)" />
    <path
       sodipodi:type="arc"
       style="fill:#00ff00;stroke:#000000;stroke-width:1.0000000;stroke-miterlimit:4.0000000;stroke-dasharray:none;stroke-dashoffset:0.00000000;stroke-opacity:1.0000000;fill-opacity:1.0000000"
       id="path4472"
       sodipodi:cx="297.72131"
       sodipodi:cy="360.78036"
       sodipodi:rx="11.888178"
       sodipodi:ry="4.1350183"
       d="M 309.60949 360.78036 A 11.888178 4.1350183 0 1 1  285.83314,360.78036 A 11.888178 4.1350183 0 1 1  309.60949 360.78036 z"
       transform="translate(-59.72131,56.58182)" />
    <path
       style="opacity:1.0000000;color:#000000;fill:#ffff00;fill-opacity:1.0000000;fill-rule:nonzero;stroke:#000000;stroke-width:1.3366611;stroke-linecap:butt;stroke-linejoin:miter;marker:none;marker-start:url(#Arrow2Lstart);marker-mid:none;marker-end:url(#Arrow2Lend);stroke-miterlimit:4.0000000;stroke-dasharray:none;stroke-dashoffset:0.00000000;stroke-opacity:1.0000000;visibility:visible;display:inline;overflow:visible"
       d="M 247.19243,413.28727 L 310.51817,378.56876"
       id="path2930" />
    <flowRoot
       xml:space="preserve"
       id="flowRoot4424"
       transform="matrix(2.874460,0.000000,0.000000,2.421885,-701.6840,-463.6018)"><flowRegion
         id="flowRegion4426"><rect
           id="rect4428"
           width="89.419769"
           height="28.428251"
           x="360.26349"
           y="330.28461" /></flowRegion><flowPara
         id="flowPara4430">KORE</flowPara></flowRoot>    <flowRoot
       xml:space="preserve"
       id="flowRoot4432"><flowRegion
         id="flowRegion4434"><rect
           id="rect4436"
           width="67.710930"
           height="16.023197"
           x="295.65381"
           y="393.34363" /></flowRegion><flowPara
         id="flowPara4438">Hooks</flowPara></flowRoot>    <flowRoot
       xml:space="preserve"
       id="flowRoot4440"
       transform="matrix(2.944637,0.000000,0.000000,2.667556,-252.6379,-714.6564)"><flowRegion
         id="flowRegion4442"><rect
           id="rect4444"
           width="131.80371"
           height="23.776356"
           x="127.66869"
           y="424.35626" /></flowRegion><flowPara
         id="flowPara4446">Xkore 2</flowPara></flowRoot>    <flowRoot
       xml:space="preserve"
       id="flowRoot4448"
       transform="matrix(2.921888,0.000000,0.000000,3.501334,-665.4982,-1313.278)"><flowRegion
         id="flowRegion4450"><rect
           id="rect4452"
           width="166.43449"
           height="37.732044"
           x="343.20651"
           y="520.49542" /></flowRegion><flowPara
         id="flowPara4454">RO-Client</flowPara></flowRoot>    <flowRoot
       xml:space="preserve"
       id="flowRoot4456"
       transform="translate(7.540923,76.31005)"><flowRegion
         id="flowRegion4458"><rect
           id="rect4460"
           width="168.50200"
           height="16.540075"
           x="295.65381"
           y="393.34363" /></flowRegion><flowPara
         id="flowPara4462">TCP/IP (Local)</flowPara></flowRoot>    <flowRoot
       xml:space="preserve"
       id="flowRoot4464"
       transform="translate(94.12390,-142.6120)"><flowRegion
         id="flowRegion4466"><rect
           id="rect4468"
           width="125.60119"
           height="16.023197"
           x="295.65381"
           y="393.34363" /></flowRegion><flowPara
         id="flowPara4470">TCP/IP (remote)</flowPara></flowRoot>    <flowRoot
       xml:space="preserve"
       id="flowRoot5950"
       transform="matrix(3.631424,0.000000,0.000000,5.401461,-732.1997,-508.8253)"><flowRegion
         id="flowRegion5952"><rect
           id="rect5954"
           width="269.00000"
           height="51.000000"
           x="271.00000"
           y="109.36218" /></flowRegion><flowPara
         id="flowPara5956">RO SERVER</flowPara></flowRoot>  </g>
</svg>
